HIERARCHY
ROOT Root
{
  OFFSET 0.0 0.0 0.0
  CHANNELS 6 Xposition Yposition Zposition Zrotation Yrotation Xrotation
  JOINT Hips
  {
    OFFSET 0.0 100.0 0.0
    CHANNELS 6 Xposition Yposition Zposition Zrotation Yrotation Xrotation
    JOINT Spine1
    {
      OFFSET 5.003913 -0.037094 -0.013727
      CHANNELS 3 Zrotation Yrotation Xrotation
      JOINT Spine2
      {
        OFFSET 7.125363 -1e-06 0.0
        CHANNELS 3 Zrotation Yrotation Xrotation
        JOINT Chest
        {
          OFFSET 7.594027 1e-06 0.0
          CHANNELS 3 Zrotation Yrotation Xrotation
          JOINT Neck1
          {
            OFFSET 26.313086 -0.460272 -0.181672
            CHANNELS 3 Zrotation Yrotation Xrotation
            JOINT Neck2
            {
              OFFSET 8.045911 0.0 0.0
              CHANNELS 3 Zrotation Yrotation Xrotation
              JOINT Head
              {
                OFFSET 6.432774 0.0 0.0
                CHANNELS 3 Zrotation Yrotation Xrotation
                JOINT HeadEnd
                {
                  OFFSET 16.169773 0.06451 0.00362
                  CHANNELS 3 Zrotation Yrotation Xrotation
                }
                JOINT Jaw
                {
                  OFFSET 0.108741 3.12938 0.002639
                  CHANNELS 3 Zrotation Yrotation Xrotation
                }
                JOINT LeftEye
                {
                  OFFSET 4.45173 8.166359 3.206392
                  CHANNELS 3 Zrotation Yrotation Xrotation
                }
                JOINT RightEye
                {
                  OFFSET 4.436895 8.135758 -3.222429
                  CHANNELS 3 Zrotation Yrotation Xrotation
                }
              }
            }
          }
          JOINT LeftShoulder
          {
            OFFSET 23.218927 5.195579 1.621656
            CHANNELS 3 Zrotation Yrotation Xrotation
            JOINT LeftArm
            {
              OFFSET 15.902118 2e-06 -2e-06
              CHANNELS 3 Zrotation Yrotation Xrotation
              JOINT LeftForeArm
              {
                OFFSET 28.739307 0.0 -1e-06
                CHANNELS 3 Zrotation Yrotation Xrotation
                JOINT LeftHand
                {
                  OFFSET 27.093981 -4e-06 0.0
                  CHANNELS 3 Zrotation Yrotation Xrotation
                  JOINT LeftHandThumb1
                  {
                    OFFSET 2.276781 3.380274 0.83384
                    CHANNELS 3 Zrotation Yrotation Xrotation
                    JOINT LeftHandThumb2
                    {
                      OFFSET 4.705309 -1e-06 -1e-06
                      CHANNELS 3 Zrotation Yrotation Xrotation
                      JOINT LeftHandThumb3
                      {
                        OFFSET 2.798515 0.0 3e-06
                        CHANNELS 3 Zrotation Yrotation Xrotation
                        JOINT LeftHandThumbEnd
                        {
                          OFFSET 3.180793 4e-06 -4e-06
                          CHANNELS 3 Zrotation Yrotation Xrotation
                        }
                      }
                    }
                  }
                  JOINT LeftHandIndex1
                  {
                    OFFSET 3.247786 2.352677 0.137192
                    CHANNELS 3 Zrotation Yrotation Xrotation
                    JOINT LeftHandIndex2
                    {
                      OFFSET 6.367095 1e-06 0.0
                      CHANNELS 3 Zrotation Yrotation Xrotation
                      JOINT LeftHandIndex3
                      {
                        OFFSET 3.662364 0.0 0.0
                        CHANNELS 3 Zrotation Yrotation Xrotation
                        JOINT LeftHandIndex4
                        {
                          OFFSET 2.329242 4e-06 -4e-06
                          CHANNELS 3 Zrotation Yrotation Xrotation
                          JOINT LeftHandIndexEnd
                          {
                            OFFSET 2.767823 1e-06 0.0
                            CHANNELS 3 Zrotation Yrotation Xrotation
                          }
                        }
                      }
                    }
                  }
                  JOINT LeftHandMiddle1
                  {
                    OFFSET 3.163612 0.945023 -0.406112
                    CHANNELS 3 Zrotation Yrotation Xrotation
                    JOINT LeftHandMiddle2
                    {
                      OFFSET 6.276789 3e-06 0.0
                      CHANNELS 3 Zrotation Yrotation Xrotation
                      JOINT LeftHandMiddle3
                      {
                        OFFSET 4.35652 -1e-06 4e-06
                        CHANNELS 3 Zrotation Yrotation Xrotation
                        JOINT LeftHandMiddle4
                        {
                          OFFSET 2.996877 0.0 8e-06
                          CHANNELS 3 Zrotation Yrotation Xrotation
                          JOINT LeftHandMiddleEnd
                          {
                            OFFSET 2.323256 3e-06 -4e-06
                            CHANNELS 3 Zrotation Yrotation Xrotation
                          }
                        }
                      }
                    }
                  }
                  JOINT LeftHandRing1
                  {
                    OFFSET 2.882606 -0.309162 0.107445
                    CHANNELS 3 Zrotation Yrotation Xrotation
                    JOINT LeftHandRing2
                    {
                      OFFSET 6.033198 0.0 4e-06
                      CHANNELS 3 Zrotation Yrotation Xrotation
                      JOINT LeftHandRing3
                      {
                        OFFSET 4.350578 3e-06 0.0
                        CHANNELS 3 Zrotation Yrotation Xrotation
                        JOINT LeftHandRing4
                        {
                          OFFSET 2.651321 2e-06 -7e-06
                          CHANNELS 3 Zrotation Yrotation Xrotation
                          JOINT LeftHandRingEnd
                          {
                            OFFSET 1.937663 1e-06 -4e-06
                            CHANNELS 3 Zrotation Yrotation Xrotation
                          }
                        }
                      }
                    }
                  }
                  JOINT LeftHandPinky1
                  {
                    OFFSET 2.865315 -1.525436 0.575687
                    CHANNELS 3 Zrotation Yrotation Xrotation
                    JOINT LeftHandPinky2
                    {
                      OFFSET 5.54936 1e-06 -8e-06
                      CHANNELS 3 Zrotation Yrotation Xrotation
                      JOINT LeftHandPinky3
                      {
                        OFFSET 3.070974 0.0 -4e-06
                        CHANNELS 3 Zrotation Yrotation Xrotation
                        JOINT LeftHandPinky4
                        {
                          OFFSET 1.549672 1e-06 0.0
                          CHANNELS 3 Zrotation Yrotation Xrotation
                          JOINT LeftHandPinkyEnd
                          {
                            OFFSET 1.952123 0.0 0.0
                            CHANNELS 3 Zrotation Yrotation Xrotation
                          }
                        }
                      }
                    }
                  }
                }
              }
            }
          }
          JOINT RightShoulder
          {
            OFFSET 23.161716 5.296122 -1.380114
            CHANNELS 3 Zrotation Yrotation Xrotation
            JOINT RightArm
            {
              OFFSET -16.027195 -2e-06 1.1e-05
              CHANNELS 3 Zrotation Yrotation Xrotation
              JOINT RightForeArm
              {
                OFFSET -28.736639 4e-06 2e-06
                CHANNELS 3 Zrotation Yrotation Xrotation
                JOINT RightHand
                {
                  OFFSET -27.133619 6e-06 0.0
                  CHANNELS 3 Zrotation Yrotation Xrotation
                  JOINT RightHandThumb1
                  {
                    OFFSET -2.274328 -3.351035 -0.83067
                    CHANNELS 3 Zrotation Yrotation Xrotation
                    JOINT RightHandThumb2
                    {
                      OFFSET -4.703594 -3e-06 2e-06
                      CHANNELS 3 Zrotation Yrotation Xrotation
                      JOINT RightHandThumb3
                      {
                        OFFSET -2.794935 -4e-06 -3e-06
                        CHANNELS 3 Zrotation Yrotation Xrotation
                        JOINT RightHandThumbEnd
                        {
                          OFFSET -3.183852 4e-06 1e-06
                          CHANNELS 3 Zrotation Yrotation Xrotation
                        }
                      }
                    }
                  }
                  JOINT RightHandIndex1
                  {
                    OFFSET -3.253496 -2.33755 -0.127667
                    CHANNELS 3 Zrotation Yrotation Xrotation
                    JOINT RightHandIndex2
                    {
                      OFFSET -6.344434 0.0 0.0
                      CHANNELS 3 Zrotation Yrotation Xrotation
                      JOINT RightHandIndex3
                      {
                        OFFSET -3.654871 0.0 -8e-06
                        CHANNELS 3 Zrotation Yrotation Xrotation
                        JOINT RightHandIndex4
                        {
                          OFFSET -2.327586 -1e-06 0.0
                          CHANNELS 3 Zrotation Yrotation Xrotation
                          JOINT RightHandIndexEnd
                          {
                            OFFSET -2.770001 3e-06 8e-06
                            CHANNELS 3 Zrotation Yrotation Xrotation
                          }
                        }
                      }
                    }
                  }
                  JOINT RightHandMiddle1
                  {
                    OFFSET -3.168223 -0.944764 0.411762
                    CHANNELS 3 Zrotation Yrotation Xrotation
                    JOINT RightHandMiddle2
                    {
                      OFFSET -6.266691 -1e-06 -4e-06
                      CHANNELS 3 Zrotation Yrotation Xrotation
                      JOINT RightHandMiddle3
                      {
                        OFFSET -4.348901 0.0 0.0
                        CHANNELS 3 Zrotation Yrotation Xrotation
                        JOINT RightHandMiddle4
                        {
                          OFFSET -3.00024 2e-06 -4e-06
                          CHANNELS 3 Zrotation Yrotation Xrotation
                          JOINT RightHandMiddleEnd
                          {
                            OFFSET -2.321477 -4e-06 -4e-06
                            CHANNELS 3 Zrotation Yrotation Xrotation
                          }
                        }
                      }
                    }
                  }
                  JOINT RightHandRing1
                  {
                    OFFSET -2.885654 0.293261 -0.119232
                    CHANNELS 3 Zrotation Yrotation Xrotation
                    JOINT RightHandRing2
                    {
                      OFFSET -6.032835 -1e-06 -4e-06
                      CHANNELS 3 Zrotation Yrotation Xrotation
                      JOINT RightHandRing3
                      {
                        OFFSET -4.33881 0.0 -4e-06
                        CHANNELS 3 Zrotation Yrotation Xrotation
                        JOINT RightHandRing4
                        {
                          OFFSET -2.654903 -4e-06 -4e-06
                          CHANNELS 3 Zrotation Yrotation Xrotation
                          JOINT RightHandRingEnd
                          {
                            OFFSET -1.935122 0.0 4e-06
                            CHANNELS 3 Zrotation Yrotation Xrotation
                          }
                        }
                      }
                    }
                  }
                  JOINT RightHandPinky1
                  {
                    OFFSET -2.866241 1.503904 -0.60527
                    CHANNELS 3 Zrotation Yrotation Xrotation
                    JOINT RightHandPinky2
                    {
                      OFFSET -5.553177 -2e-06 0.0
                      CHANNELS 3 Zrotation Yrotation Xrotation
                      JOINT RightHandPinky3
                      {
                        OFFSET -3.062664 -1e-06 -4e-06
                        CHANNELS 3 Zrotation Yrotation Xrotation
                        JOINT RightHandPinky4
                        {
                          OFFSET -1.546529 2e-06 4e-06
                          CHANNELS 3 Zrotation Yrotation Xrotation
                          JOINT RightHandPinkyEnd
                          {
                            OFFSET -1.952341 0.0 -4e-06
                            CHANNELS 3 Zrotation Yrotation Xrotation
                          }
                        }
                      }
                    }
                  }
                }
              }
            }
          }
        }
      }
    }
    JOINT LeftLeg
    {
      OFFSET -8.443107 2.567604 10.043214
      CHANNELS 3 Zrotation Yrotation Xrotation
      JOINT LeftShin
      {
        OFFSET 43.229198 1e-06 -1e-06
        CHANNELS 3 Zrotation Yrotation Xrotation
        JOINT LeftFoot
        {
          OFFSET 42.298611 1e-06 1e-06
          CHANNELS 3 Zrotation Yrotation Xrotation
          JOINT LeftToeBase
          {
            OFFSET 14.165858 1e-06 0.0
            CHANNELS 3 Zrotation Yrotation Xrotation
            JOINT LeftToeEnd
            {
              OFFSET 6.7141 -0.234461 0.0
              CHANNELS 3 Zrotation Yrotation Xrotation
            }
          }
        }
      }
    }
    JOINT RightLeg
    {
      OFFSET -8.303923 2.592729 -10.047278
      CHANNELS 3 Zrotation Yrotation Xrotation
      JOINT RightShin
      {
        OFFSET -43.369682 0.0 1e-06
        CHANNELS 3 Zrotation Yrotation Xrotation
        JOINT RightFoot
        {
          OFFSET -42.260784 4e-06 2e-06
          CHANNELS 3 Zrotation Yrotation Xrotation
          JOINT RightToeBase
          {
            OFFSET -14.222245 -2e-06 -1e-06
            CHANNELS 3 Zrotation Yrotation Xrotation
            JOINT RightToeEnd
            {
              OFFSET -6.660062 0.232574 -2e-06
              CHANNELS 3 Zrotation Yrotation Xrotation
            }
          }
        }
      }
    }
  }
}
MOTION
Frames: 4
Frame Time: 0.03333333333333333
0.0 0.0 0.0 0.0 -0.0 0.0 -2.289416 52.349686 52.936142 90.877991 -10.298046 91.158226 -3.550927 0.072114 0.027678 -11.739381 -0.175466 0.506734 12.539642 -0.310719 -1.797839 20.368549 -1.533803 2.357804 -2.660373 -0.803468 -2.780218 -32.995567 -0.288637 -4.280495 6e-06 0.0 -0.0 -0.083775 -0.008158 -0.062243 0.022545 -0.008829 -0.000505 -0.028872 -0.009523 -0.108147 -128.349075 -70.766045 146.140488 48.519432 -52.404865 -3.330865 30.985495 0.486191 0.323934 -8.427103 -0.085488 0.710345 17.636629 -26.322729 52.41119 -19.466661 -14.395596 29.410389 -0.0 -8.774821 -3e-06 16.204323 -18.322191 6.349679 -0.609776 -1.795654 -3.889324 -4.80709 -11.046811 -2.937851 3e-06 -20.976021 1e-06 -5.019972 -25.03356 -4.031881 7e-06 -0.0 -1e-06 -10.634534 -5.686972 -3.565587 10.573272 -17.922951 -3.113901 3e-06 -13.82121 0.0 -0.501778 -31.181505 -4.027016 -11.669949 -60.508202 7.323945 -13.982715 -7.150199 -2.875045 13.772729 -8.401491 -3.21824 0.34773 -34.211544 0.771654 -0.963026 -17.733372 2.621019 1e-06 1e-06 -1e-06 -17.346422 -20.095221 -4.20178 21.757561 -1.638373 3.866428 0.0 -6.338823 0.0 -1.69759 -22.591751 -6.194006 -1e-06 -2e-06 -1e-06 66.868294 -79.091431 127.182877 37.528118 -63.735466 -0.524708 31.16128 -0.747222 -0.201396 1.427685 -6.029892 9.617791 22.182116 -20.375891 49.933311 -16.701811 -16.743528 28.476524 -3e-06 -12.6906 -0.0 16.15715 -17.432936 2.479578 -0.105919 -1.513855 -4.275881 -5.039041 -5.61287 -2.953556 4e-06 -11.02052 -3e-06 -6.111297 -15.895328 -3.84047 0.0 0.0 1e-06 -10.28337 -5.680288 -4.341837 11.028292 -11.302402 -2.372633 -1.384269 -14.238581 -6.32012 -0.625438 -26.924194 -3.827601 -4.261041 -49.75349 -3.944117 -13.708525 -7.363476 -3.720938 18.14115 -14.052739 -3.242676 6e-06 -18.78727 -4e-06 -0.42971 -8.456047 2.555503 1e-06 -1e-06 -1e-06 -15.923532 -20.094481 -5.473584 30.419207 -7.190823 1.735928 2e-06 -8.162925 -1e-06 -1.861901 -22.861467 -6.167942 1e-06 -3e-06 -2e-06 174.578217 -11.846952 -5.975141 118.867889 -1.353734 -0.323653 -103.433533 8.207394 -14.369436 -25.151857 1.871153 2.16623 -0.999998 0.0 -2e-06 -9.796094 -15.348892 0.866204 120.904228 -1.010392 0.268719 -82.854675 11.586225 -0.627295 -18.708677 0.83779 1.622443 -1.000002 -0.0 0.0 
0.0 0.0 0.0 0.0 -0.0 0.0 -2.271396 52.319633 52.954697 90.853966 -10.318779 91.153244 -3.568217 0.073343 0.032643 -11.768597 -0.160715 0.533487 12.544485 -0.269479 -1.819975 20.50038 -1.556196 2.354024 -2.664482 -0.835111 -2.726742 -32.95031 -0.256101 -4.360266 6e-06 0.0 0.0 -0.088985 -0.003066 -0.043375 0.022397 -0.006571 0.019021 -0.025916 -0.001742 -0.09011 -128.354797 -70.789604 146.137192 48.632698 -52.352962 -3.429445 30.86554 0.506076 0.312495 -8.448255 -0.106551 0.825886 17.636635 -26.322744 52.411213 -19.466667 -14.3956 29.410398 -2e-06 -8.774822 -2e-06 16.218882 -18.320414 6.320897 -0.609776 -1.795654 -3.889328 -4.807088 -11.046813 -2.937851 6e-06 -20.976021 1e-06 -5.019969 -25.033558 -4.031879 5e-06 0.0 -0.0 -10.634537 -5.686971 -3.565587 10.573278 -17.922955 -3.113904 5e-06 -13.821212 1e-06 -0.501777 -31.181511 -4.027014 -11.637758 -60.527943 7.266909 -13.982716 -7.150198 -2.875043 13.772732 -8.401497 -3.218243 0.347738 -34.211559 0.771655 -0.96303 -17.733379 2.621022 3e-06 -1e-06 1e-06 -17.34642 -20.095221 -4.201783 21.757561 -1.638378 3.866426 2e-06 -6.338824 -0.0 -1.697585 -22.591749 -6.194006 -1e-06 -1e-06 -2e-06 66.771088 -79.068665 127.310463 37.755737 -63.706837 -0.515126 31.07268 -0.717139 -0.204975 1.396015 -6.012123 9.669386 22.182116 -20.3759 49.933327 -16.701822 -16.74353 28.476536 -5e-06 -12.690601 -2e-06 16.177485 -17.469358 2.472366 -0.10592 -1.513858 -4.275882 -5.039041 -5.612873 -2.953559 5e-06 -11.020528 -3e-06 -6.111296 -15.895338 -3.840473 -1e-06 2e-06 -1e-06 -10.283371 -5.680288 -4.341837 11.028298 -11.30241 -2.372635 -1.384266 -14.238588 -6.320121 -0.625434 -26.924198 -3.827601 -4.278455 -49.795811 -3.951259 -13.708526 -7.363476 -3.720942 18.141155 -14.052746 -3.242676 1e-05 -18.787271 -4e-06 -0.429708 -8.456047 2.555504 -2e-06 -0.0 1e-06 -15.923536 -20.094484 -5.473587 30.419222 -7.190834 1.735927 3e-06 -8.16293 -1e-06 -1.861899 -22.861479 -6.167942 3e-06 -5e-06 -4e-06 174.614792 -11.821158 -5.937206 118.810402 -1.347479 -0.319623 -103.44783 8.339323 -14.299202 -25.391535 1.869249 2.148699 -0.999999 0.0 0.0 -9.755363 -15.32403 0.952288 120.822685 -1.049352 0.250647 -82.83213 11.723054 -0.682735 -18.743549 0.839411 1.622833 -1.000003 0.0 0.0 
0.0 0.0 0.0 0.0 -0.0 0.0 -2.24882 52.293003 52.989418 90.821915 -10.324434 91.158363 -3.576384 0.077507 0.032249 -11.801208 -0.143307 0.55139 12.56074 -0.232109 -1.82734 20.628138 -1.563011 2.343503 -2.671241 -0.88109 -2.666587 -32.878387 -0.253955 -4.400018 6e-06 -0.0 0.0 -0.094758 0.001202 -0.025405 0.01871 -0.006054 0.036686 -0.029556 0.006274 -0.072287 -128.296585 -70.841049 146.099197 48.803082 -52.289211 -3.55274 30.767237 0.527234 0.304291 -8.490729 -0.158062 0.928982 17.636625 -26.322737 52.411205 -19.46666 -14.395597 29.410395 -0.0 -8.774822 -1e-06 16.223198 -18.318117 6.285064 -0.609776 -1.795653 -3.889328 -4.807089 -11.046811 -2.937851 3e-06 -20.976019 -0.0 -5.019969 -25.03356 -4.031881 6e-06 1e-06 0.0 -10.634532 -5.686971 -3.565587 10.573271 -17.922951 -3.113901 3e-06 -13.821212 1e-06 -0.501781 -31.181507 -4.027014 -11.585267 -60.516617 7.178751 -13.982712 -7.150198 -2.875045 13.772727 -8.401492 -3.218241 0.347731 -34.211555 0.771654 -0.96303 -17.73337 2.62102 1e-06 -1e-06 -1e-06 -17.346418 -20.095219 -4.20178 21.757557 -1.638375 3.866427 1e-06 -6.338823 1e-06 -1.69759 -22.591747 -6.194006 -1e-06 -3e-06 -0.0 66.774971 -79.074356 127.345177 38.0373 -63.690571 -0.640193 30.980413 -0.694815 -0.208114 1.348199 -6.029171 9.755167 22.182116 -20.375893 49.933319 -16.701813 -16.74353 28.47653 -3e-06 -12.690601 -1e-06 16.156132 -17.479706 2.469925 -0.105919 -1.513855 -4.275879 -5.039041 -5.612871 -2.953555 4e-06 -11.02052 -2e-06 -6.111297 -15.89533 -3.840472 -0.0 2e-06 0.0 -10.283371 -5.680289 -4.341838 11.028294 -11.302404 -2.372635 -1.384269 -14.238581 -6.32012 -0.62544 -26.924189 -3.827602 -4.301804 -49.78339 -3.960151 -13.708526 -7.363476 -3.720941 18.141151 -14.052739 -3.242673 7e-06 -18.78727 -4e-06 -0.429711 -8.456043 2.555504 1e-06 -1e-06 -0.0 -15.923536 -20.094482 -5.473583 30.419218 -7.190826 1.735927 3e-06 -8.162927 -1e-06 -1.8619 -22.861467 -6.167943 2e-06 -4e-06 -1e-06 174.62674 -11.794987 -5.899334 118.782471 -1.345772 -0.318501 -103.392403 8.415524 -14.191058 -25.639519 1.865972 2.12707 -1.0 0.0 -1e-06 -9.715265 -15.313993 1.04194 120.744438 -1.084002 0.244679 -82.802101 11.89165 -0.75758 -18.737198 0.83917 1.623477 -1.000003 0.0 -0.0 
0.0 0.0 0.0 0.0 -0.0 0.0 -2.210457 52.285362 53.022827 90.799294 -10.301807 91.170212 -3.576957 0.075785 0.032515 -11.820691 -0.130624 0.544988 12.584629 -0.212247 -1.821451 20.761372 -1.559572 2.319927 -2.680777 -0.914444 -2.606067 -32.795708 -0.261433 -4.376546 6e-06 -0.0 -0.0 -0.097614 0.002891 -0.017584 0.015355 -0.008337 0.043782 -0.034585 0.012056 -0.064247 -128.229584 -70.892548 146.079559 48.935539 -52.199272 -3.553269 30.70112 0.572496 0.303775 -8.545615 -0.211737 0.922607 17.636625 -26.322716 52.411171 -19.46666 -14.395594 29.410378 -0.0 -8.77482 -2e-06 16.192558 -18.311602 6.271692 -0.609776 -1.795654 -3.889327 -4.807089 -11.046809 -2.937852 5e-06 -20.976015 -1e-06 -5.019969 -25.033554 -4.031882 7e-06 1e-06 0.0 -10.634533 -5.68697 -3.565585 10.573269 -17.922947 -3.113902 3e-06 -13.821206 -1e-06 -0.501778 -31.181498 -4.027018 -11.507934 -60.484516 7.084291 -13.982712 -7.150198 -2.87504 13.772727 -8.40149 -3.218242 0.347734 -34.211544 0.77165 -0.963026 -17.73337 2.621016 1e-06 1e-06 -1e-06 -17.346418 -20.095217 -4.201778 21.757557 -1.638373 3.866427 1e-06 -6.338822 -0.0 -1.697591 -22.591745 -6.194009 -1e-06 -1e-06 -0.0 66.789871 -79.096146 127.352554 38.270195 -63.683483 -0.757794 30.927319 -0.682979 -0.205513 1.309866 -6.081117 9.844256 22.182112 -20.375887 49.933308 -16.701811 -16.743528 28.476522 -2e-06 -12.6906 -2e-06 16.103439 -17.45985 2.468358 -0.105919 -1.513856 -4.275879 -5.03904 -5.612869 -2.953556 4e-06 -11.020519 -2e-06 -6.111298 -15.895328 -3.840469 -0.0 1e-06 -1e-06 -10.283369 -5.680288 -4.341835 11.028291 -11.302401 -2.372635 -1.384269 -14.238578 -6.320117 -0.62544 -26.924185 -3.827601 -4.321429 -49.725719 -3.957793 -13.708524 -7.363474 -3.720933 18.14115 -14.052739 -3.242677 7e-06 -18.787266 -5e-06 -0.42971 -8.456043 2.555505 1e-06 1e-06 -0.0 -15.923534 -20.094479 -5.473584 30.419207 -7.190823 1.735927 3e-06 -8.162925 0.0 -1.861902 -22.861465 -6.167943 1e-06 -5e-06 -3e-06 174.648514 -11.751837 -5.86768 118.756653 -1.357225 -0.326451 -103.276482 8.479557 -14.085523 -25.751175 1.860113 2.109844 -0.999999 0.0 1e-06 -9.669935 -15.3291 1.112076 120.659447 -1.110373 0.246555 -82.716713 12.01775 -0.859793 -18.7089 0.838973 1.621727 -1.000001 -0.0 -1e-06 
